<svg width="33" height="32" viewBox="0 0 33 32" fill="none" xmlns="http://www.w3.org/2000/svg">
<path fill-rule="evenodd" clip-rule="evenodd" d="M20.1469 17.88C20.3869 19.1467 19.7336 20.1867 19.1869 21.2134C18.5736 22.1467 17.5736 22.96 16.3602 22.84C13.7129 22.8031 11.0834 22.3993 8.54691 21.64C8.4277 21.6121 8.32315 21.5408 8.25358 21.4401C8.20025 21.2934 8.28025 21.1601 8.38691 21.0667C10.6269 19.2534 13.2936 18.4001 15.9336 17.5201C16.9202 17.2401 17.9602 16.9334 19.0669 17.0801C19.5336 17.1334 19.9869 17.4534 20.1469 17.88ZM29.4002 12.4934C30.6536 13.5334 31.8002 14.9467 31.4002 16.6534C30.7736 19.1734 28.0402 20.5201 25.8536 21.3601C24.6536 21.7601 23.4669 22.16 22.1736 22.2934C22.0802 22.28 21.9602 22.2934 21.9336 22.1734L21.9602 22.0401C23.73 19.9681 25.2349 17.6839 26.4402 15.2401C27.0136 14.1734 27.5336 13.0934 28.0269 12.0134C28.0886 11.9459 28.1667 11.8954 28.2536 11.8667C28.7069 11.9067 29.0269 12.2667 29.4002 12.5067V12.4934ZM11.6802 9.82672L11.6402 9.96005C8.97358 13.0134 7.21358 16.5334 5.54691 20.04C5.22691 20.3467 4.90691 19.9334 4.61358 19.8001C3.13358 18.8267 1.78691 17.2534 2.17358 15.3867C2.80025 12.9467 5.30691 11.6534 7.40025 10.76C8.64025 10.2934 9.93358 9.92005 11.2802 9.70672C11.4136 9.70672 11.6136 9.69338 11.6802 9.81338V9.82672ZM24.9336 10.3067C25.0802 10.3867 25.2669 10.4134 25.3602 10.5734C25.4402 10.7467 25.2802 10.8534 25.1869 10.9734C23.0829 12.4946 20.7267 13.6321 18.2269 14.3334C16.9736 14.64 15.7069 15.1867 14.3202 14.88C14.1526 14.8366 13.9955 14.7599 13.858 14.6545C13.7206 14.5492 13.6057 14.4173 13.5202 14.2667C13.1736 13.32 13.6536 12.32 14.0536 11.4934C14.5869 10.44 15.5336 9.22672 16.8536 9.20005C19.7069 9.17338 22.3869 9.60005 24.9336 10.3067ZM28.4402 10.3867C30.6002 11.56 33.0402 13.64 32.7869 16.4001C32.4936 18.9601 30.1069 20.7467 27.9736 21.8267C21.7469 24.8001 13.0002 24.8934 6.57358 22.2934C4.40025 21.3867 1.96025 19.8267 1.05358 17.4934C0.346912 15.5734 1.20025 13.5734 2.64025 12.2401C5.62691 9.52005 9.44025 8.58672 13.3736 8.05338C17.6402 7.52005 22.1336 7.98672 25.9469 9.29338C26.8002 9.61338 27.6402 9.96005 28.4536 10.3867H28.4402Z" fill="#1E1E1E"/>
</svg>
