<svg width="33" height="32" viewBox="0 0 33 32" fill="none" xmlns="http://www.w3.org/2000/svg">
<path fill-rule="evenodd" clip-rule="evenodd" d="M15.1966 25.3868C13.5192 24.3348 12.2819 20.7094 12.2819 16.4001L12.2832 15.9308H12.2859C7.62189 15.1974 4.24989 13.1894 4.16322 10.8108L4.14989 10.8401C3.00722 12.2588 2.35522 13.9001 2.35522 15.6481C2.35522 20.7934 8.00189 25.0081 15.1646 25.3814L15.1952 25.3854L15.1966 25.3868ZM0.199219 16.0228C0.199219 10.2668 7.36189 5.6001 16.1992 5.6001C25.0366 5.6001 32.1992 10.2681 32.1992 16.0241C32.1992 21.7788 25.0366 26.4468 16.1992 26.4468C7.36189 26.4468 0.199219 21.7774 0.199219 16.0228ZM16.1992 7.10276C17.9046 7.10276 19.3566 9.69076 19.8926 13.3028L19.8952 13.2961C23.2152 12.7788 25.5379 11.5868 25.5379 10.2001C25.5379 8.33876 21.3566 6.8361 16.1992 6.8361C11.0419 6.8361 6.86055 8.33876 6.86055 10.2001C6.86055 11.5868 9.18322 12.7801 12.5032 13.2961L12.5046 13.3028C13.0419 9.69343 14.4926 7.10276 16.1992 7.10276ZM17.2312 25.3788C24.3939 25.0054 30.0419 20.7921 30.0419 15.6454C30.0419 13.8988 29.3886 12.2574 28.2472 10.8374L28.2326 10.8108C28.1472 13.1854 24.7752 15.1961 20.1099 15.9308V15.9281C20.1139 16.0841 20.1166 16.2401 20.1166 16.3961C20.1166 20.7081 18.8806 24.3334 17.2046 25.3828L17.2352 25.3788H17.2312ZM16.1992 13.5721C16.9632 13.5721 17.7059 13.5388 18.4179 13.4748L18.4166 13.4761C18.0632 11.1614 17.2032 9.52543 16.1992 9.52543C15.1939 9.52543 14.3366 11.1601 13.9819 13.4734C14.6926 13.5361 15.4352 13.5668 16.1992 13.5668V13.5721ZM16.1992 22.1428C17.4832 22.1428 18.5312 19.4694 18.5859 16.1148L18.5939 16.1161C17.0007 16.2614 15.3977 16.2614 13.8046 16.1161L13.8126 16.1134C13.8672 19.4668 14.9139 22.1401 16.1992 22.1401V22.1428Z" fill="#1E1E1E"/>
</svg>
