<svg width="33" height="32" viewBox="0 0 33 32" fill="none" xmlns="http://www.w3.org/2000/svg">
<path d="M16.1992 30.1067C13.9591 30.1033 11.7523 29.5645 9.7627 28.5351C7.77311 27.5057 6.05841 26.0157 4.76157 24.1891C3.46473 22.3626 2.62331 20.2525 2.30747 18.0348C1.99163 15.8171 2.21052 13.556 2.94589 11.44L11.1726 27.44C11.2926 27.6667 11.3992 27.84 11.6926 27.84C11.9859 27.84 12.0926 27.6667 12.1992 27.44L16.0259 18.92C16.0926 18.8 16.1459 18.7467 16.1992 18.7467C16.2526 18.7467 16.3192 18.8667 16.3726 18.92L20.2659 27.44C20.3726 27.6667 20.4926 27.84 20.7726 27.84C21.0526 27.84 21.1726 27.6667 21.2926 27.44L29.5326 11.3733C30.0617 12.8577 30.3236 14.4242 30.3059 16C30.2711 19.7306 28.7737 23.2985 26.1357 25.9365C23.4977 28.5745 19.9298 30.0719 16.1992 30.1067ZM16.1992 12.3333C16.0792 12.3333 16.0792 12.2267 16.0259 12.1733L11.6259 2.66667C14.5814 1.59955 17.817 1.59955 20.7726 2.66667L16.3726 12.1467C16.3192 12.2267 16.3192 12.3467 16.1992 12.3333ZM11.5726 22.6667C11.4526 22.6667 11.4526 22.56 11.3992 22.4933L4.19922 8.62667C5.4927 6.56283 7.27982 4.85362 9.39922 3.65334L14.4926 14.6667C14.5992 14.9067 14.7192 14.96 14.8926 14.96H17.5592C17.7326 14.96 17.8526 14.96 17.9592 14.6667L22.9726 3.69334C25.1013 4.87287 26.8988 6.56948 28.1992 8.62667L20.9992 22.4533C20.9992 22.5733 20.8926 22.6267 20.8259 22.6267C20.7592 22.6267 20.7192 22.52 20.6659 22.4533L17.9059 16.4C17.8816 16.3145 17.8285 16.2399 17.7557 16.1889C17.6828 16.1379 17.5946 16.1136 17.5059 16.12H14.8659C14.7772 16.1136 14.689 16.1379 14.6161 16.1889C14.5432 16.2399 14.4902 16.3145 14.4659 16.4L11.7192 22.4667C11.7192 22.4667 11.6792 22.6667 11.5726 22.6667ZM16.1992 32C19.3637 32 22.4572 31.0616 25.0883 29.3035C27.7195 27.5454 29.7703 25.0466 30.9813 22.1229C32.1923 19.1993 32.5091 15.9823 31.8918 12.8786C31.2744 9.77487 29.7506 6.92394 27.5129 4.6863C25.2753 2.44866 22.4244 0.924806 19.3207 0.307443C16.217 -0.309921 12.9999 0.00693258 10.0763 1.21793C7.15267 2.42894 4.65381 4.4797 2.89571 7.11088C1.1376 9.74207 0.199219 12.8355 0.199219 16C0.199219 20.2435 1.88493 24.3131 4.88551 27.3137C7.88609 30.3143 11.9558 32 16.1992 32Z" fill="#1E1E1E"/>
</svg>
